<?xml version="1.0" encoding="UTF-8"?>
<svg version="1.1" xmlns="http://www.w3.org/2000/svg" width="256" height="256">
<path d="M0 0 C84.48 0 168.96 0 256 0 C256 84.48 256 168.96 256 256 C171.52 256 87.04 256 0 256 C0 171.52 0 87.04 0 0 Z " fill="#FFFFFF" transform="translate(0,0)"/>
<path d="M0 0 C20.44209115 18.43296207 35.03361898 42.26692791 36.625 70.3984375 C37.78945108 97.78632683 30.08714294 123.64906731 11.50390625 144.2578125 C-6.92977431 164.27284613 -31.38034104 177.30508067 -58.93359375 178.4765625 C-87.36902709 179.25061384 -112.69225509 169.96385374 -133.53125 150.4375 C-152.72919598 132.05509467 -164.05392155 107.09985056 -164.77954102 80.44360352 C-165.1190984 51.97499866 -154.83723001 27.18984286 -135.16796875 6.64794922 C-99.34782512 -29.88452681 -39.21177976 -32.94564692 0 0 Z " fill="#EA4335" transform="translate(192.49609375,50.7421875)"/>
<path d="M0 0 C28.76771395 0 52.71170973 10.79845912 73.1875 30.875 C92.06419899 49.94740463 101.43024423 76.10282175 101.30053711 102.70336914 C100.65566757 131.80346868 87.73913893 156.27066958 66.9921875 176.24609375 C49.44053868 192.66807082 24.67299331 201 1 201 C1 184.5 1 168 1 151 C5.95 150.01 10.9 149.02 16 148 C30.4749624 142.62016117 39.7639779 134.18604721 46.2890625 120.24609375 C51.32537784 108.09009521 51.6050949 95.45696247 47.265625 83.00390625 C45.29568748 78.32834467 42.91414759 74.14733851 40 70 C39.56042969 69.36449219 39.12085938 68.72898437 38.66796875 68.07421875 C29.26803799 55.85701768 14.43207341 52.22031899 0 50 C0 33.5 0 17 0 0 Z " fill="#34A853" transform="translate(128,28)"/>
<path d="M0 0 C9.44467404 7.56297653 15.9675388 19.50729315 17.8515625 31.4453125 C19.02349423 47.73708476 14.88236989 60.87215112 4.6640625 73.6328125 C-3.67519874 82.72517883 -16.16926713 88.7994052 -28.4609375 89.68359375 C-44.26614347 90.00170701 -57.54279142 85.23980911 -69.26953125 74.484375 C-79.43502015 63.45238912 -83.71373995 50.1745907 -83.42578125 35.43359375 C-82.50010533 22.12211321 -75.94353 9.47105866 -66.1484375 0.4453125 C-45.10587535 -15.38516887 -21.30219934 -15.41504607 0 0 Z " fill="#FFFFFF" transform="translate(161.1484375,89.5546875)"/>
<path d="M0 0 C0 16.5 0 33 0 50 C-4.95 50.99 -9.9 51.98 -15 53 C-29.58673452 58.42138063 -38.29460823 66.74918072 -45.25390625 80.47265625 C-48.31917741 87.42889893 -48.78225449 93.08465419 -50 101 C-66.5 101 -83 101 -100 101 C-100 72.23228605 -89.20154088 48.28829027 -69.125 27.8125 C-50.78745035 9.6631155 -25.63611433 0 0 0 Z " fill="#FBBC04" transform="translate(128,28)"/>
<path d="M0 0 C16.5 0 33 0 50 0 C50 28.27851571 38.79764215 52.12364053 19.125 72.1875 C0.78745035 90.3368845 -24.36388567 100 -50 100 C-50 83.5 -50 67 -50 50 C-45.05 49.01 -40.1 48.02 -35 47 C-20.44229205 41.58940753 -11.62433105 33.2486621 -4.74609375 19.4921875 C-1.87102972 12.89333206 -1.23581111 7.41486669 0 0 Z " fill="#4285F4" transform="translate(179,129)"/>
</svg>
